<svg width="11" height="13" viewBox="0 0 11 13" fill="none" xmlns="http://www.w3.org/2000/svg">
    <path d="M11 2.49997C11 2.77598 10.776 2.99997 10.5 2.99997H0.5C0.223994 2.99997 0 2.77598 0 2.49997C0 2.22397 0.223994 1.99998 0.5 1.99998H3.5V0.499994C3.5 0.223992 3.72399 0 4 0H7C7.27601 0 7.5 0.223992 7.5 0.499994V1.99998H10.5C10.776 1.99998 11 2.22397 11 2.49997ZM9.053 3.95041C9.32655 4.24093 9.46406 4.62341 9.44006 5.02786L9.05757 11.5309C9.01003 12.341 8.31149 13 7.49997 13H3.49997C2.68849 13 1.98991 12.341 1.94194 11.531L1.56003 5.02769C1.53603 4.62323 1.67353 4.24064 1.94709 3.9507C2.22052 3.6603 2.59451 3.50025 3 3.50025H8C8.40546 3.50025 8.77946 3.66001 9.053 3.95041ZM4.99986 5.99993C4.99986 5.72393 4.77586 5.49994 4.49986 5.49994C4.22385 5.49994 3.99986 5.72393 3.99986 5.99993V10.4999C3.99986 10.7759 4.22385 10.9999 4.49986 10.9999C4.77586 10.9999 4.99986 10.7759 4.99986 10.4999V5.99993ZM6.99986 5.99993C6.99986 5.72393 6.77586 5.49994 6.49986 5.49994C6.22385 5.49994 5.99986 5.72393 5.99986 5.99993V10.4999C5.99986 10.7759 6.22385 10.9999 6.49986 10.9999C6.77586 10.9999 6.99986 10.7759 6.99986 10.4999V5.99993Z" fill="white"/>
</svg>
