<svg width="12" height="11" viewBox="0 0 12 11" fill="none" xmlns="http://www.w3.org/2000/svg">
    <path d="M4.84616e-05 2.18308C0.000378194 2.03907 0.0577521 1.90091 0.159639 1.79911C0.261526 1.69723 0.3996 1.63985 0.54369 1.63952H6.37104L5.8771 2.72674H0.543774C0.399682 2.72641 0.261608 2.66904 0.159723 2.56715C0.0578388 2.46527 0.000462192 2.32719 0.000132988 2.1831L4.84616e-05 2.18308ZM4.84616e-05 8.86129C0.000378194 9.00539 0.0577521 9.14346 0.159639 9.24535C0.261526 9.34723 0.3996 9.40461 0.54369 9.40494H3.46496C3.47172 9.04026 3.50766 8.67663 3.57254 8.31772H0.543641C0.399549 8.31796 0.261475 8.37534 0.15959 8.47722C0.0577058 8.57911 0.000329205 8.71719 0 8.86128L4.84616e-05 8.86129ZM0.543701 4.94967H4.86894L5.36288 3.86245H0.543616C0.349404 3.86245 0.169948 3.96607 0.0728324 4.13423C-0.0242746 4.30248 -0.0242746 4.50963 0.0728324 4.67788C0.169939 4.84605 0.349385 4.94967 0.543616 4.94967H0.543701ZM4.84616e-05 6.62777C0.000378194 6.77186 0.0577521 6.90993 0.159639 7.01182C0.261526 7.1137 0.3996 7.17108 0.54369 7.17141H3.88322C3.94232 7.0091 4.00811 6.84877 4.08056 6.69041L4.35589 6.08419H0.54366C0.399568 6.08444 0.261494 6.14181 0.159609 6.2437C0.0577248 6.34558 0.000348203 6.48366 1.89982e-05 6.62775L4.84616e-05 6.62777ZM10.7032 2.8379L10.1017 2.56842L10.338 2.05197H10.3381C10.5103 1.70732 10.5349 1.30735 10.4061 0.944238C10.2774 0.581036 10.0064 0.285934 9.65549 0.126755C9.30465 -0.0325065 8.90404 -0.0420683 8.54594 0.100211C8.18785 0.242409 7.90313 0.524253 7.75714 0.880849L4.94096 7.08045C4.42624 8.21439 4.28033 9.48132 4.52376 10.7025C4.54675 10.8193 4.62465 10.9177 4.73297 10.967C4.84129 11.0162 4.96667 11.0101 5.0698 10.9507C6.1495 10.3298 7.00723 9.38576 7.52195 8.25161L9.69048 3.47962L10.2884 3.75024C10.3334 3.77068 10.3534 3.82336 10.3334 3.86845L9.16934 6.43287C9.11156 6.55454 9.10512 6.69435 9.15137 6.82089C9.1977 6.94742 9.29291 7.05004 9.41564 7.10569C9.5383 7.16133 9.67827 7.16537 9.80389 7.11682C9.9296 7.06827 10.0306 6.97133 10.084 6.84767L11.248 4.28325C11.3666 4.01921 11.3758 3.71901 11.2737 3.44821C11.1716 3.17742 10.9665 2.95806 10.7032 2.83796L10.7032 2.8379Z" fill="white"/>
</svg>
