<svg width="12" height="12" viewBox="0 0 12 12" fill="none" xmlns="http://www.w3.org/2000/svg">
    <path d="M6 0C7.59129 0 9.11733 0.632136 10.2426 1.75735C11.3678 2.88264 12 4.40888 12 6C12 7.59112 11.3679 9.11733 10.2426 10.2426C9.11736 11.3678 7.59111 12 6 12C4.40888 12 2.88267 11.3679 1.75735 10.2426C0.63216 9.11736 1.45701e-07 7.59112 1.45701e-07 6C0.00172209 4.4092 0.63434 2.88414 1.75926 1.75931C2.88409 0.634389 4.40933 0.00176325 5.99995 4.89531e-05L6 0ZM3.85713 6.42862H5.57143V8.14292C5.57143 8.29608 5.65312 8.43756 5.78571 8.51409C5.9183 8.59063 6.0817 8.59063 6.21429 8.51409C6.34688 8.43756 6.42857 8.29608 6.42857 8.14292V6.42862H8.14287C8.29603 6.42862 8.43751 6.34693 8.51404 6.21434C8.59058 6.08175 8.59058 5.91835 8.51404 5.78576C8.43751 5.65317 8.29603 5.57147 8.14287 5.57147H6.42857V3.85717C6.42857 3.70402 6.34688 3.56254 6.21429 3.486C6.0817 3.40947 5.9183 3.40947 5.78571 3.486C5.65312 3.56254 5.57143 3.70402 5.57143 3.85717V5.57147H3.85713C3.70397 5.57147 3.56249 5.65317 3.48595 5.78576C3.40942 5.91835 3.40942 6.08175 3.48595 6.21434C3.56249 6.34693 3.70397 6.42862 3.85713 6.42862Z" fill="white"/>
</svg>
