<svg width="15" height="14" viewBox="0 0 15 14" fill="none" xmlns="http://www.w3.org/2000/svg">
    <path d="M12.9402 11.9464C11.6816 13.2164 9.93114 14 7.99388 14C6.08939 14 4.34928 13.2329 3.09049 11.9905L3.04627 11.9463C1.77627 10.6878 0.992625 8.93242 0.992625 6.99999C0.992625 5.06777 1.7773 3.31753 3.04627 2.05365H3.05262C4.31628 0.783644 6.0617 0 7.99387 0C9.9047 0 11.6372 0.767125 12.9072 2.00945L12.9514 2.0524C14.2164 3.31606 15 5.06631 15 6.99874C15 8.93096 14.2166 10.6863 12.9514 11.9451H12.9402L12.9402 11.9464ZM11.8471 3.15074L11.8143 3.11287C10.8311 2.14118 9.48391 1.55598 7.99277 1.55598C6.49026 1.55598 5.13284 2.16252 4.14464 3.14569L4.14971 3.15077C3.15642 4.12755 2.55497 5.49742 2.55497 6.9989C2.55497 8.50017 3.15642 9.87004 4.14971 10.8521L4.18251 10.8849C5.16059 11.8454 6.50782 12.4406 7.99279 12.4406C9.50548 12.4406 10.8639 11.834 11.846 10.8509C12.8302 9.87007 13.4381 8.50019 13.4381 6.99893C13.4381 5.49766 12.8302 4.12779 11.8471 3.15079L11.8471 3.15074Z" fill="white"/>
    <path d="M10.9318 9.94173C10.6385 10.2451 10.1369 10.2451 9.84369 9.94173L7.99357 8.09796L6.16123 9.94173C5.85171 10.2451 5.36637 10.2451 5.05663 9.94173C4.74838 9.63835 4.74838 9.14563 5.05663 8.83714L6.89531 6.99845L5.05663 5.15977C4.74838 4.85512 4.74838 4.35982 5.05663 4.06026C5.36614 3.75075 5.85273 3.75075 6.16123 4.06026L7.99357 5.90404L9.84369 4.06026C10.1369 3.75075 10.6385 3.75075 10.9318 4.06026C11.2413 4.35856 11.2413 4.85512 10.9318 5.15977L9.09942 6.99845L10.9318 8.83714C11.2415 9.14052 11.2415 9.63708 10.9318 9.94173Z" fill="white"/>
</svg>
