<svg width="25" height="30" viewBox="0 0 25 30" fill="none" xmlns="http://www.w3.org/2000/svg">
    <path d="M23.9882 28.5268H23.233V18.1981C23.2319 17.8071 23.1006 17.4325 22.8673 17.156C22.6339 16.8796 22.3178 16.7237 21.9881 16.7226V16.2308C21.9869 15.8397 21.8556 15.4651 21.6224 15.1887C21.3889 14.9122 21.0729 14.7563 20.7431 14.7552H15.7632C15.4332 14.7563 15.1172 14.9122 14.8839 15.1887C14.6505 15.4651 14.5191 15.8397 14.5182 16.2308V16.7226C14.1883 16.7237 13.8722 16.8796 13.639 17.156C13.4055 17.4325 13.2742 17.8071 13.2732 18.1981V28.5268H10.3683V22.6247C10.3689 22.3641 10.4565 22.1142 10.6121 21.93C10.7675 21.7458 10.9782 21.6417 11.1983 21.641H12.4432V18.1981H9.12331C8.89396 18.1981 8.70832 17.9779 8.70832 17.7063C8.70832 17.4347 8.89396 17.2145 9.12331 17.2145H12.4432C12.5001 17.2151 12.5564 17.2285 12.6092 17.2538C12.8151 16.6616 13.2082 16.1886 13.7047 15.9357C13.7316 15.6685 13.7975 15.4087 13.8998 15.1685C13.8365 15.2164 13.7633 15.2436 13.6882 15.2471H9.12333C8.89657 15.243 8.71464 15.024 8.71464 14.7553C8.71464 14.4865 8.89657 14.2676 9.12333 14.2634H13.6882C13.8003 14.2628 13.9076 14.3166 13.9852 14.4123C14.0628 14.508 14.104 14.6374 14.099 14.77C14.4891 14.1438 15.1064 13.7736 15.7632 13.7716H18.6681V3.44289C18.667 3.05183 18.5357 2.67724 18.3024 2.4008C18.069 2.12436 17.7529 1.96846 17.4232 1.96736V1.47552C17.4221 1.08447 17.2907 0.709878 17.0575 0.433434C16.824 0.156991 16.508 0.00109611 16.1782 0H9.53834C9.20839 0.00109785 8.89233 0.156996 8.65908 0.433434C8.42564 0.709878 8.29429 1.08447 8.29337 1.47552V1.96736C7.96342 1.96846 7.64736 2.12436 7.41411 2.4008C7.18068 2.67724 7.04932 3.05183 7.0484 3.44289V28.5269H6.21842V11.6176L2.80287 8.64675C2.55461 8.43003 2.24706 8.33035 1.94025 8.36723C1.63327 8.40434 1.34907 8.57517 1.14271 8.84678C0.936141 9.1186 0.82239 9.47145 0.8235 9.83704V28.5271H0.408509C0.181933 28.5314 0 28.7504 0 29.0189C0.0001853 29.2874 0.181928 29.5064 0.408509 29.5107H23.9881C24.2147 29.5064 24.3966 29.2874 24.3966 29.0189C24.3966 28.7504 24.2147 28.5314 23.9881 28.5271L23.9882 28.5268ZM15.3483 16.2308C15.3488 15.9594 15.5343 15.7398 15.7633 15.7389H20.7432C20.972 15.7398 21.1574 15.9594 21.1582 16.2308V16.7226H15.3483V16.2308ZM15.3483 19.6737H21.1582C21.3849 19.6776 21.567 19.8967 21.567 20.1655C21.567 20.4342 21.3849 20.6534 21.1582 20.6573H15.3483C15.1215 20.6532 14.9396 20.4342 14.9396 20.1655C14.9396 19.8967 15.1215 19.6778 15.3483 19.6737ZM15.3483 22.6247H21.1582C21.3849 22.6287 21.567 22.8478 21.567 23.1166C21.567 23.3853 21.3849 23.6044 21.1582 23.6084H15.3483C15.1215 23.6042 14.9396 23.3853 14.9396 23.1166C14.9396 22.8478 15.1215 22.6289 15.3483 22.6247ZM15.3483 25.5758H21.1582C21.3849 25.5797 21.567 25.7989 21.567 26.0676C21.567 26.3364 21.3849 26.5555 21.1582 26.5595H15.3483C15.1215 26.5553 14.9396 26.3364 14.9396 26.0676C14.9396 25.7989 15.1215 25.5799 15.3483 25.5758ZM2.47738 14.2634H5.38232C5.60908 14.2671 5.79138 14.4862 5.79138 14.7552C5.79138 15.0242 5.60908 15.2433 5.38232 15.2471H2.47738C2.25043 15.2433 2.06813 15.0242 2.06813 14.7552C2.06813 14.4862 2.25043 14.2671 2.47738 14.2634ZM2.47738 17.2144H5.38232C5.60908 17.2182 5.79138 17.4373 5.79138 17.7063C5.79138 17.9753 5.60908 18.1944 5.38232 18.1981H2.47738C2.25043 18.1944 2.06813 17.9753 2.06813 17.7063C2.06813 17.4373 2.25043 17.2182 2.47738 17.2144ZM2.47738 20.1655H5.38232C5.60908 20.1692 5.79138 20.3884 5.79138 20.6573C5.79138 20.9263 5.60908 21.1454 5.38232 21.1492H2.47738C2.25043 21.1454 2.06813 20.9263 2.06813 20.6573C2.06813 20.3884 2.25043 20.1692 2.47738 20.1655ZM2.47738 23.1166H5.38232C5.60908 23.1203 5.79138 23.3394 5.79138 23.6084C5.79138 23.8774 5.60908 24.0965 5.38232 24.1002H2.47738C2.25043 24.0965 2.06813 23.8774 2.06813 23.6084C2.06813 23.3394 2.25043 23.1203 2.47738 23.1166ZM16.5928 12.296H9.12294C8.89617 12.2918 8.71424 12.0729 8.71424 11.8042C8.71424 11.5354 8.89617 11.3165 9.12294 11.3123H16.5928C16.8194 11.3165 17.0013 11.5354 17.0013 11.8042C17.0013 12.0729 16.8194 12.2918 16.5928 12.296ZM16.5928 9.34496H9.12294C8.89617 9.34079 8.71424 9.12187 8.71424 8.85312C8.71424 8.58436 8.89617 8.36544 9.12294 8.36127H16.5928C16.8194 8.36545 17.0013 8.58436 17.0013 8.85312C17.0013 9.12187 16.8194 9.34079 16.5928 9.34496ZM16.5928 6.3939H9.12294C8.89617 6.38973 8.71424 6.17081 8.71424 5.90206C8.71424 5.63331 8.89617 5.41439 9.12294 5.41022H16.5928C16.8194 5.41439 17.0013 5.63331 17.0013 5.90206C17.0013 6.17081 16.8194 6.38973 16.5928 6.3939ZM9.12294 1.47548C9.12349 1.20409 9.30894 0.98451 9.53793 0.983634H16.1778C16.4066 0.984512 16.592 1.20409 16.5928 1.47548V1.96732H9.12294V1.47548Z" fill="#3971FF"/>
</svg>
