<svg width="14" height="14" viewBox="0 0 14 14" fill="none" xmlns="http://www.w3.org/2000/svg">
    <path d="M8.40129 8.40915C8.78771 8.39871 9.10948 8.70358 9.11983 9.09C9.13028 9.47642 8.82541 9.79819 8.43899 9.80864L8.07699 9.82153C7.71244 9.83784 7.37797 9.86353 7.07367 9.89829C6.2723 9.98999 5.65825 10.6416 5.60405 11.4357L5.60014 11.55V12.6H8.40013C8.78675 12.6 9.10013 12.9134 9.10013 13.3C9.10013 13.659 8.8299 13.9549 8.48178 13.9953L8.40014 14H5.60015C4.86208 14 4.25749 13.4289 4.20396 12.7045L4.20015 12.6V11.55C4.20015 9.99329 5.36792 8.6843 6.91464 8.5073C7.25234 8.46873 7.61874 8.4406 8.01423 8.42283L8.40129 8.40915ZM11.2 8.40007C11.559 8.40007 11.8549 8.6703 11.8953 9.01842L11.9 9.10006V10.5H13.3C13.6866 10.5 14 10.8134 14 11.2C14 11.559 13.7298 11.8549 13.3817 11.8953L13.3 11.9H11.9V13.3C11.9 13.6866 11.5866 14 11.2 14C10.841 14 10.5451 13.7298 10.5047 13.3817L10.5 13.3V11.9H9.10004C8.71342 11.9 8.40005 11.5867 8.40005 11.2C8.40005 10.8411 8.67027 10.5452 9.0184 10.5047L9.10003 10.5001H10.5V9.10007C10.5 8.71345 10.8134 8.40007 11.2 8.40007ZM4.01706 9.10094C4.04606 9.48649 3.75711 9.82251 3.37166 9.85151L3.03406 9.8811C2.97967 9.88657 2.92615 9.89233 2.87352 9.89829C2.07214 9.98999 1.4581 10.6416 1.4039 11.4357L1.39999 11.55V12.6H2.79999C3.18661 12.6 3.49998 12.9134 3.49998 13.3C3.49998 13.659 3.22976 13.9549 2.88163 13.9953L2.8 14H1.4C0.66193 14 0.0573331 13.4289 0.00380839 12.7045L0 12.6V11.55C0 9.99329 1.16777 8.6843 2.71449 8.5073L2.89329 8.48816L3.26654 8.45545C3.65209 8.42644 3.98811 8.71539 4.01711 9.10084L4.01706 9.10094ZM9.10003 2.74997e-05C11.4201 2.74997e-05 12.6 1.36651 12.6 3.49999C12.6 5.52908 10.9865 7.69996 9.10003 7.69996C7.21362 7.69996 5.60005 5.52908 5.60005 3.49999C5.60005 1.36651 6.77992 2.74997e-05 9.10003 2.74997e-05ZM4.90005 2.74997e-05C5.28668 2.74997e-05 5.60005 0.3134 5.60005 0.700021C5.60005 1.08664 5.28668 1.40001 4.90005 1.40001C4.56528 1.40001 4.27536 1.43663 4.02858 1.50607C3.74784 1.58507 3.52634 1.70519 3.35349 1.86329C2.98844 2.19709 2.80006 2.74823 2.80006 3.5C2.80006 4.11727 3.06296 4.85476 3.49234 5.42616C3.69907 5.70135 3.93336 5.92303 4.17583 6.0736C4.25903 6.12536 4.34273 6.16833 4.42613 6.20241L4.55103 6.24684C4.92106 6.35885 5.13023 6.74956 5.01823 7.11958C4.90632 7.4896 4.51551 7.69877 4.14549 7.58678C3.90047 7.51266 3.66336 7.40348 3.43709 7.26285C3.04002 7.01618 2.67977 6.67526 2.37312 6.26726C1.76707 5.46072 1.40007 4.43116 1.40007 3.50004C1.40007 2.38832 1.7161 1.46353 2.40867 0.830065C2.74684 0.520893 3.16277 0.295195 3.64949 0.158396C4.02526 0.0526345 4.44206 0 4.90006 0L4.90005 2.74997e-05ZM9.10003 1.40001C7.60259 1.40001 7.00004 2.09776 7.00004 3.49999C7.00004 4.83073 8.09214 6.29997 9.10003 6.29997C10.1079 6.29997 11.2 4.83073 11.2 3.49999C11.2 2.09776 10.5975 1.40001 9.10003 1.40001Z" fill="white"/>
</svg>
