<svg width="20" height="26" viewBox="0 0 20 26" fill="none" xmlns="http://www.w3.org/2000/svg">
<path d="M15.5239 25.2859H2.58732C1.90112 25.2859 1.24302 25.0133 0.757808 24.528C0.272591 24.0428 0 23.3847 0 22.6985V4.58732C0 3.90112 0.272591 3.24302 0.757808 2.75781C1.24302 2.27259 1.90112 2 2.58732 2H11.6429L18.1112 8.46829V22.6985C18.1112 23.3847 17.8386 24.0428 17.3534 24.528C16.8682 25.0133 16.2101 25.2859 15.5239 25.2859Z" fill="#2C3E50"/>
<path d="M6.46826 20.1114L9.05558 16.2305" stroke="#F0F2F5" stroke-width="2.75" stroke-linecap="round" stroke-linejoin="round"/>
<path d="M12.9366 20.1135C9.70241 20.1135 9.70241 12.3516 6.46826 12.3516" stroke="#F0F2F5" stroke-width="2.75" stroke-linecap="round" stroke-linejoin="round"/>
<path d="M11.6431 2V7.17463C11.6431 7.51773 11.7794 7.84678 12.022 8.08939C12.2646 8.332 12.5936 8.46829 12.9367 8.46829H18.1114" stroke="#F0F2F5" stroke-width="2.75" stroke-linecap="round" stroke-linejoin="round"/>
</svg>
