<svg width="15" height="18" viewBox="0 0 15 18" fill="none" xmlns="http://www.w3.org/2000/svg">
<path d="M9.25 1V4.66657C9.25 4.90968 9.34657 5.14283 9.51848 5.31474C9.69038 5.48664 9.92353 5.58322 10.1666 5.58322H13.8332" stroke="#D51130" stroke-linecap="round" stroke-linejoin="round"/>
<path d="M11.9997 17.4996H2.83329C2.34707 17.4996 1.88077 17.3064 1.53696 16.9626C1.19315 16.6188 1 16.1525 1 15.6663V2.83329C1 2.34707 1.19315 1.88077 1.53696 1.53696C1.88077 1.19315 2.34707 1 2.83329 1H9.24979L13.833 5.58322V15.6663C13.833 16.1525 13.6399 16.6188 13.2961 16.9626C12.9522 17.3064 12.4859 17.4996 11.9997 17.4996Z" stroke="#D51130" stroke-linecap="round" stroke-linejoin="round"/>
<path d="M5.58301 13.832L7.41629 11.082" stroke="#D51130" stroke-linecap="round" stroke-linejoin="round"/>
<path d="M10.1662 13.8319C7.87462 13.8319 7.87462 8.33203 5.58301 8.33203" stroke="#D51130" stroke-linecap="round" stroke-linejoin="round"/>
</svg>
