<svg width="23" height="29" viewBox="0 0 23 29" fill="none" xmlns="http://www.w3.org/2000/svg">
    <path d="M4.11627 8.26924C2.52634 8.26924 1.23743 6.74187 1.23743 4.85728C1.23743 2.97291 2.52615 1.44531 4.11627 1.44531C5.70621 1.44531 6.99512 2.97269 6.99512 4.85728C6.99512 6.74187 5.70602 8.26924 4.11627 8.26924V8.26924ZM4.11627 3.17691C3.3344 3.17691 2.69851 3.93078 2.69851 4.85722C2.69851 5.78389 3.33459 6.53753 4.11627 6.53753C4.89815 6.53753 5.53404 5.78366 5.53404 4.85722C5.53385 3.93078 4.89777 3.17691 4.11627 3.17691V3.17691Z" fill="#3971FF" fill-opacity="0.5"/>
    <path d="M5.34114 9.32032C5.86307 9.32032 6.35244 9.48912 6.77637 9.77913C6.485 10.2406 6.2641 10.7664 6.13153 11.3367C5.90488 11.1575 5.6334 11.052 5.34114 11.052H2.88994C2.1023 11.052 1.46137 11.8114 1.46137 12.7451V18.6528H3.00613V25.259H5.22418V18.6528H5.98578V19.2439C5.98578 20.0072 6.25613 20.6943 6.68526 21.188V25.3398C6.68526 26.2477 6.05828 26.9908 5.2922 26.9908H2.93787C2.1718 26.9908 1.54481 26.2477 1.54481 25.3398V20.3843H1.3929C0.626832 20.3843 -0.000152386 19.6412 -0.000152386 18.7333V12.7448C-0.000152386 10.8613 1.30008 9.32031 2.8893 9.32031L5.34114 9.32032Z" fill="#3971FF" fill-opacity="0.5"/>
    <path d="M15.6163 4.85728C15.6163 2.97291 16.9051 1.44531 18.4952 1.44531C20.0851 1.44531 21.374 2.97269 21.374 4.85728C21.374 6.74164 20.0853 8.26924 18.4952 8.26924C16.9052 8.26902 15.6163 6.74164 15.6163 4.85728ZM19.913 4.85728C19.913 3.93061 19.2769 3.17696 18.4952 3.17696C17.7133 3.17696 17.0775 3.93083 17.0775 4.85728C17.0775 5.78395 17.7135 6.53759 18.4952 6.53759C19.2771 6.53759 19.913 5.78372 19.913 4.85728Z" fill="#3971FF" fill-opacity="0.5"/>
    <path d="M21.2197 20.3843H21.0678V25.3395C21.0678 26.2474 20.4408 26.9905 19.6747 26.9905H17.3202C16.5541 26.9905 15.9272 26.2474 15.9272 25.3395V21.1877C16.3567 20.6943 16.6266 20.0068 16.6266 19.2436V18.6528H17.3882V25.259H19.6063V18.6528H21.151V12.7451C21.151 11.8116 20.5103 11.052 19.7229 11.052H17.2717C16.9796 11.052 16.7079 11.1575 16.4813 11.3367C16.3489 10.7664 16.1278 10.2408 15.8364 9.77912C16.2602 9.48912 16.7498 9.32031 17.2717 9.32031H19.7229C21.3121 9.32031 22.6123 10.8613 22.6123 12.7448V18.7333C22.6125 19.6414 21.9857 20.3841 21.2196 20.3841L21.2197 20.3843Z" fill="#3971FF" fill-opacity="0.5"/>
    <path d="M11.3067 7.59497C9.53694 7.59497 8.10266 5.89458 8.10266 3.7976C8.10266 1.70061 9.53699 0 11.3067 0C13.0764 0 14.5107 1.70039 14.5107 3.79737C14.5107 5.89436 13.0764 7.59497 11.3067 7.59497ZM11.3067 1.88921C10.4189 1.88921 9.69649 2.74535 9.69649 3.7976C9.69649 4.84984 10.4189 5.70576 11.3067 5.70576C12.1945 5.70576 12.9169 4.84962 12.9169 3.7976C12.9169 2.74558 12.1945 1.88921 11.3067 1.88921Z" fill="#3971FF"/>
    <path d="M6.72972 19.2425V12.5771C6.72972 10.4807 8.17686 8.76562 9.94567 8.76562H12.6737C14.4425 8.76562 15.8896 10.4807 15.8896 12.5771V19.2419C15.8896 20.2525 15.192 21.0794 14.3393 21.0794H14.1701V26.5943C14.1701 27.605 13.4725 28.4318 12.6198 28.4318H9.99956C9.14686 28.4318 8.44924 27.605 8.44924 26.5943V21.0796H8.28003C7.42733 21.0796 6.72971 20.2528 6.72971 19.2422L6.72972 19.2425ZM8.32375 19.1907H10.0433V26.5432H12.5765L12.5763 21.08V19.1908H14.2959L14.2961 12.5773C14.2961 11.5174 13.5683 10.6551 12.6741 10.6551H9.9459C9.05155 10.6551 8.32399 11.5176 8.32399 12.5773L8.32375 19.1907Z" fill="#3971FF"/>
</svg>
