<svg width="36" height="36" viewBox="0 0 36 36" fill="none" xmlns="http://www.w3.org/2000/svg">
<path d="M22.2538 9.52488C23.7569 10.333 25.0116 11.5351 25.8834 13.0021C26.7552 14.4691 27.2112 16.1458 27.2025 17.8523C27.1938 19.5588 26.7208 21.2308 25.8341 22.6889C24.9474 24.147 23.6805 25.3362 22.1693 26.129C20.6581 26.9218 18.9596 27.2883 17.256 27.1891C15.5523 27.09 13.9078 26.529 12.4988 25.5662C11.0897 24.6035 9.96937 23.2754 9.25779 21.7243C8.54621 20.1732 8.27029 18.4576 8.45961 16.7616C8.98762 12.0613 12.876 8.46495 17.6061 8.38836" stroke="#010B1A" stroke-width="1.5" stroke-linecap="round" stroke-linejoin="round"/>
<path d="M12.3505 5.67927L17.8431 7.76511L15.7573 13.2577" stroke="#010B1A" stroke-width="1.5" stroke-linecap="round" stroke-linejoin="round"/>
</svg>
