<svg width="19" height="19" viewBox="0 0 19 19" fill="none" xmlns="http://www.w3.org/2000/svg">
<path d="M1 7.41667C1 8.25932 1.16597 9.09371 1.48844 9.87222C1.81091 10.6507 2.28356 11.3581 2.8794 11.9539C3.47524 12.5498 4.18261 13.0224 4.96111 13.3449C5.73962 13.6674 6.57402 13.8333 7.41667 13.8333C8.25932 13.8333 9.09371 13.6674 9.87222 13.3449C10.6507 13.0224 11.3581 12.5498 11.9539 11.9539C12.5498 11.3581 13.0224 10.6507 13.3449 9.87222C13.6674 9.09371 13.8333 8.25932 13.8333 7.41667C13.8333 6.57402 13.6674 5.73962 13.3449 4.96111C13.0224 4.18261 12.5498 3.47524 11.9539 2.8794C11.3581 2.28356 10.6507 1.81091 9.87222 1.48844C9.09371 1.16597 8.25932 1 7.41667 1C6.57402 1 5.73962 1.16597 4.96111 1.48844C4.18261 1.81091 3.47524 2.28356 2.8794 2.8794C2.28356 3.47524 1.81091 4.18261 1.48844 4.96111C1.16597 5.73962 1 6.57402 1 7.41667Z" stroke="#C0C9E0" stroke-width="1.5" stroke-linecap="round" stroke-linejoin="round"/>
<path d="M17.5 17.5L12 12" stroke="#C0C9E0" stroke-width="1.5" stroke-linecap="round" stroke-linejoin="round"/>
</svg>
