<svg width="15" height="13" viewBox="0 0 15 13" fill="none" xmlns="http://www.w3.org/2000/svg">
    <path fill-rule="evenodd" clip-rule="evenodd" d="M9.33706 7.03718V10.5286C9.33706 10.7886 9.19019 11.0262 8.95769 11.1425L6.21255 12.515C5.75624 12.7432 5.21935 12.4114 5.21935 11.9012V7.03718L0.570494 1.35524C0.203869 0.907144 0.522681 0.234375 1.10165 0.234375H13.4548C14.0337 0.234375 14.3525 0.907144 13.9859 1.35524L9.33706 7.03718ZM7.96149 10.104V6.7917C7.96149 6.63328 8.0163 6.47974 8.11662 6.35712L12.0035 1.60645H2.54688L6.43379 6.35712C6.53411 6.47974 6.58892 6.63328 6.58892 6.7917V10.7903L7.96149 10.104Z" fill="white"/>
</svg>
