<svg width="22" height="22" viewBox="0 0 22 22" fill="none" xmlns="http://www.w3.org/2000/svg">
    <path d="M5.86574 7.57758C5.86574 7.43094 5.79242 7.2843 5.67017 7.18643L3.91033 5.86633V3.42188H18.0882V12.7108L16.3282 14.0307C16.2059 14.1284 16.1326 14.2753 16.1326 14.4219C16.1326 14.5685 16.2059 14.7152 16.3282 14.813L18.088 16.1331V18.5776H3.91016V9.28866L5.67017 7.96873C5.79225 7.87086 5.86574 7.72422 5.86574 7.57758ZM6.35477 5.86633C6.35477 6.13523 6.57473 6.35518 6.84362 6.35518H15.1548C15.4237 6.35518 15.6436 6.13522 15.6436 5.86633C15.6436 5.59743 15.4237 5.37748 15.1548 5.37748H6.84362C6.57472 5.37748 6.35477 5.59744 6.35477 5.86633ZM6.35477 9.28866C6.35477 9.55756 6.57473 9.77751 6.84362 9.77751H15.1548C15.4237 9.77751 15.6436 9.55755 15.6436 9.28866C15.6436 9.01976 15.4237 8.79981 15.1548 8.79981H6.84362C6.57472 8.79981 6.35477 9.01977 6.35477 9.28866ZM15.1548 12.222H14.1771C13.9082 12.222 13.6883 12.4419 13.6883 12.7108C13.6883 12.9797 13.9082 13.1997 14.1771 13.1997H15.1548C15.4237 13.1997 15.6437 12.9797 15.6437 12.7108C15.6437 12.4419 15.4237 12.222 15.1548 12.222ZM6.35477 12.7108C6.35477 12.9797 6.57473 13.1997 6.84362 13.1997H12.2214C12.4903 13.1997 12.7103 12.9797 12.7103 12.7108C12.7103 12.4419 12.4903 12.222 12.2214 12.222H6.84362C6.57472 12.222 6.35477 12.4419 6.35477 12.7108ZM6.35477 16.1331C6.35477 16.402 6.57473 16.622 6.84362 16.622H15.1548C15.4237 16.622 15.6436 16.402 15.6436 16.1331C15.6436 15.8642 15.4237 15.6443 15.1548 15.6443L6.84362 15.6441C6.57472 15.6441 6.35477 15.8643 6.35477 16.1331Z" fill="#3971FF"/>
    <g opacity="0.5">
        <path d="M22 0.488848V2.93331C22 3.20221 21.7801 3.42216 21.5112 3.42216C21.2423 3.42216 21.0223 3.20219 21.0223 2.93331V2.19993H20.0446V1.22223H21.0223V0.488848C21.0223 0.219949 21.2423 0 21.5112 0C21.7801 0 22 0.219962 22 0.488848ZM0.977696 0.488848C0.977696 0.219949 0.757734 0 0.488848 0C0.219949 0 0 0.219962 0 0.488848V2.93331C0 3.20221 0.219962 3.42216 0.488848 3.42216C0.757747 3.42216 0.977696 3.20219 0.977696 2.93331V2.19993H1.95539V1.22223H0.977696V0.488848ZM21.5112 18.5778C21.2423 18.5778 21.0223 18.7978 21.0223 19.0667V19.8001H20.0446V20.7778H21.0223V21.5112C21.0223 21.7801 21.2423 22 21.5112 22C21.7801 22 22 21.78 22 21.5112V19.0667C22 18.7978 21.78 18.5778 21.5112 18.5778ZM0.977696 19.0667C0.977696 18.7978 0.757734 18.5778 0.488848 18.5778C0.219949 18.5778 0 18.7978 0 19.0667V21.5112C0 21.7801 0.219962 22 0.488848 22C0.757747 22 0.977696 21.78 0.977696 21.5112V20.7778H1.95539V19.8001H0.977696V19.0667ZM2.93331 2.44433H19.0667V0.977565H2.93331V2.44433ZM2.93331 21.0222H19.0667V19.5555H2.93331V21.0222Z" fill="#3971FF"/>
    </g>
</svg>
