<svg width="16" height="16" viewBox="0 0 16 16" fill="none" xmlns="http://www.w3.org/2000/svg">
<path d="M0.75 8C0.75 8.95208 0.937527 9.89484 1.30187 10.7745C1.66622 11.6541 2.20025 12.4533 2.87348 13.1265C3.5467 13.7997 4.34593 14.3338 5.22555 14.6981C6.10516 15.0625 7.04792 15.25 8 15.25C8.95208 15.25 9.89484 15.0625 10.7745 14.6981C11.6541 14.3338 12.4533 13.7997 13.1265 13.1265C13.7997 12.4533 14.3338 11.6541 14.6981 10.7745C15.0625 9.89484 15.25 8.95208 15.25 8C15.25 7.04792 15.0625 6.10516 14.6981 5.22555C14.3338 4.34593 13.7997 3.5467 13.1265 2.87348C12.4533 2.20025 11.6541 1.66622 10.7745 1.30187C9.89484 0.937527 8.95208 0.75 8 0.75C7.04792 0.75 6.10516 0.937527 5.22555 1.30187C4.34593 1.66622 3.5467 2.20025 2.87348 2.87348C2.20025 3.5467 1.66622 4.34593 1.30187 5.22555C0.937527 6.10516 0.75 7.04792 0.75 8Z" stroke="#FB8700" stroke-width="1.5" stroke-linecap="round" stroke-linejoin="round"/>
<path d="M8 8L9.61111 10.4167" stroke="#FB8700" stroke-width="1.5" stroke-linecap="round" stroke-linejoin="round"/>
<path d="M8 3.97266V8.00043" stroke="#FB8700" stroke-width="1.5" stroke-linecap="round" stroke-linejoin="round"/>
</svg>
